<svg width="24" height="25" viewBox="0 0 24 25" fill="none" xmlns="http://www.w3.org/2000/svg">
<path d="M5 4.25C5 2.7305 6.23233 1.49899 7.75183 1.5L19.7518 1.50798C21.2699 1.50899 22.5 2.7399 22.5 4.25797V14.2487C22.5 15.7675 21.2688 16.9987 19.75 16.9987H7.75C6.23122 16.9987 5 15.7675 5 14.2487V4.25Z" fill="#475467"/>
<path fill-rule="evenodd" clip-rule="evenodd" d="M3.91805 8.4415C3.38057 8.44073 2.94445 8.87558 2.94445 9.41225L2.94444 20.0878C2.94444 20.6239 3.37972 21.0585 3.91667 21.0585H15.5833C16.1203 21.0585 16.5556 20.6239 16.5556 20.0878V16.6902H18.5V20.0878C18.5 21.6962 17.1942 23 15.5833 23H3.91667C2.30584 23 1 21.6962 1 20.0878V9.41225C1 7.80223 2.30837 6.49771 3.92082 6.5L5.8625 6.50276L5.85973 8.44426L3.91805 8.4415Z" fill="#475467"/>
</svg>
