<svg width="24" height="25" viewBox="0 0 24 25" fill="none" xmlns="http://www.w3.org/2000/svg">
<path fill-rule="evenodd" clip-rule="evenodd" d="M7.375 4.5C7.375 4.08579 7.71079 3.75 8.125 3.75H12.125C12.5392 3.75 12.875 4.08579 12.875 4.5V20.5C12.875 20.9142 12.5392 21.25 12.125 21.25H8.125C7.71079 21.25 7.375 20.9142 7.375 20.5V4.5Z" fill="#475467"/>
<path fill-rule="evenodd" clip-rule="evenodd" d="M2.125 3.5C2.67728 3.5 3.125 3.94772 3.125 4.5V20.5C3.125 21.0523 2.67728 21.5 2.125 21.5C1.57272 21.5 1.125 21.0523 1.125 20.5V4.5C1.125 3.94772 1.57272 3.5 2.125 3.5Z" fill="#475467"/>
<path fill-rule="evenodd" clip-rule="evenodd" d="M5.125 3.5C5.67728 3.5 6.125 3.94772 6.125 4.5V20.5C6.125 21.0523 5.67728 21.5 5.125 21.5C4.57272 21.5 4.125 21.0523 4.125 20.5V4.5C4.125 3.94772 4.57272 3.5 5.125 3.5Z" fill="#475467"/>
<path fill-rule="evenodd" clip-rule="evenodd" d="M15.125 3.5C15.6773 3.5 16.125 3.94772 16.125 4.5V20.5C16.125 21.0523 15.6773 21.5 15.125 21.5C14.5727 21.5 14.125 21.0523 14.125 20.5V4.5C14.125 3.94772 14.5727 3.5 15.125 3.5Z" fill="#475467"/>
<path fill-rule="evenodd" clip-rule="evenodd" d="M17.375 4.5C17.375 4.08579 17.7108 3.75 18.125 3.75H22.125C22.5392 3.75 22.875 4.08579 22.875 4.5V20.5C22.875 20.9142 22.5392 21.25 22.125 21.25H18.125C17.7108 21.25 17.375 20.9142 17.375 20.5V4.5Z" fill="#475467"/>
</svg>
