  <svg width="20" height="21" viewBox="0 0 20 21" fill="none" xmlns="http://www.w3.org/2000/svg">
      <path fill-rule="evenodd" clip-rule="evenodd" d="M9.79427 19.2526C4.84672 19.2526 0.835938 15.2419 0.835938 10.2943C0.835938 5.34672 4.84672 1.33594 9.79427 1.33594C14.7419 1.33594 18.7526 5.34672 18.7526 10.2943C18.7526 15.2419 14.7419 19.2526 9.79427 19.2526ZM13.7678 8.32775C14.0624 7.97419 14.0147 7.44872 13.6611 7.15408C13.3075 6.85945 12.782 6.90721 12.4874 7.26078L8.90494 11.5598L7.0502 9.70502C6.72475 9.3796 6.19712 9.3796 5.87168 9.70502C5.54625 10.0304 5.54625 10.5581 5.87168 10.8835L8.37169 13.3835C8.53727 13.5491 8.76477 13.6374 8.99869 13.6268C9.2326 13.6161 9.45127 13.5076 9.6011 13.3278L13.7678 8.32775Z" fill="currentColor" />
    </svg>