<svg width="18" height="18" viewBox="0 0 18 18" fill="none" xmlns="http://www.w3.org/2000/svg">
      <path fill-rule="evenodd" clip-rule="evenodd" d="M9 3.1875C8.25435 3.1875 7.5486 3.31474 6.8899 3.52873C6.70377 3.58919 6.56244 3.74207 6.51675 3.93238C6.47105 4.12268 6.52757 4.32306 6.66596 4.46145L14.1814 11.977C14.4006 12.1961 14.7556 12.1967 14.9755 11.9785C15.6974 11.262 16.2929 10.4961 16.6558 9.98723C16.8457 9.72315 17.0625 9.42165 17.0625 9C17.0625 8.57835 16.8058 8.2212 16.6159 7.95712C16.0865 7.21481 15.1402 6.03432 13.8598 5.03473C12.5805 4.03606 10.9279 3.1875 9 3.1875ZM5.45831 4.66282C5.26791 4.47242 4.96929 4.44365 4.74605 4.59421C3.15431 5.6677 1.9517 7.16086 1.34414 8.01277C1.15428 8.27685 0.9375 8.57835 0.9375 9C0.9375 9.42165 1.1942 9.7788 1.38406 10.0429C1.91344 10.7852 2.85985 11.9657 4.14023 12.9653C5.41946 13.964 7.07208 14.8125 9 14.8125C10.6372 14.8125 12.0762 14.2001 13.2539 13.4058C13.3932 13.3118 13.4832 13.1606 13.4993 12.9934C13.5154 12.8261 13.456 12.6604 13.3372 12.5417L5.45831 4.66282ZM7.14708 7.125C6.67005 7.602 6.375 8.26102 6.375 8.98898C6.375 10.4448 7.5552 11.625 9.01102 11.625C9.73897 11.625 10.398 11.33 10.875 10.853L7.14708 7.125Z" fill="#344054" />
      <path fill-rule="evenodd" clip-rule="evenodd" d="M1.71967 1.71967C2.01257 1.42678 2.48743 1.42678 2.78033 1.71967L16.2803 15.2197C16.5732 15.5126 16.5732 15.9874 16.2803 16.2803C15.9874 16.5732 15.5126 16.5732 15.2197 16.2803L1.71967 2.78033C1.42678 2.48743 1.42678 2.01257 1.71967 1.71967Z" fill="#344054" />
    </svg>