<svg width="24" height="25" viewBox="0 0 24 25" fill="none" xmlns="http://www.w3.org/2000/svg">
<path fill-rule="evenodd" clip-rule="evenodd" d="M22 14.7078V11.5C22 10.7861 21.5651 10.2652 21.1475 9.9361C20.7186 9.59811 20.16 9.33748 19.5589 9.1371C18.3462 8.73286 16.7344 8.5 15 8.5C13.2656 8.5 11.6538 8.73286 10.4411 9.1371C9.84 9.33748 9.2814 9.59811 8.85254 9.9361C8.43495 10.2652 8 10.7861 8 11.5V14.6699C8.0482 14.8288 8.17306 15.0159 8.44117 15.2298C8.81278 15.5262 9.37972 15.8041 10.1022 16.04C11.5405 16.5095 13.4029 16.7513 14.9997 16.7513C16.5971 16.7513 18.463 16.5116 19.9045 16.0431C20.6287 15.8077 21.197 15.5301 21.5695 15.2333C21.8182 15.0353 21.9442 14.8598 22 14.7078ZM11.0736 11.9655C10.5969 11.8066 10.2794 11.6392 10.0994 11.5C10.2794 11.3608 10.5969 11.1934 11.0736 11.0345C12.0325 10.7149 13.4207 10.5 15 10.5C16.5793 10.5 17.9675 10.7149 18.9264 11.0345C19.4031 11.1934 19.7206 11.3608 19.9006 11.5C19.7206 11.6392 19.4031 11.8066 18.9264 11.9655C17.9675 12.2852 16.5793 12.5 15 12.5C13.4207 12.5 12.0325 12.2852 11.0736 11.9655Z" fill="#475467"/>
<path d="M22 16.7518C21.5182 17.0409 20.9568 17.2764 20.3682 17.4677C18.7441 17.9955 16.716 18.2494 14.9997 18.2494C13.2827 18.2494 11.2575 17.9931 9.63673 17.464C9.04579 17.2711 8.48247 17.0336 8 16.7422V19.4981C8 20.212 8.43495 20.7329 8.85254 21.062C9.2814 21.4 9.84 21.6606 10.4411 21.861C11.6538 22.2652 13.2656 22.4981 15 22.4981C16.7344 22.4981 18.3462 22.2652 19.5589 21.861C20.16 21.6606 20.7186 21.4 21.1475 21.062C21.5651 20.7329 22 20.212 22 19.4981V16.7518Z" fill="#475467"/>
<path fill-rule="evenodd" clip-rule="evenodd" d="M15 7V4.5C15 3.78612 14.5651 3.26519 14.1475 2.9361C13.7186 2.59811 13.16 2.33748 12.5589 2.1371C11.3462 1.73286 9.73443 1.5 8 1.5C6.26557 1.5 4.65384 1.73286 3.44113 2.1371C2.84 2.33748 2.2814 2.59811 1.85254 2.9361C1.43495 3.26519 1 3.78612 1 4.5V8.00267C1.03948 8.06548 1.13378 8.18315 1.3587 8.34887C1.71242 8.60949 2.24339 8.8775 2.89196 9.11954C4.16887 9.59609 5.7367 9.91188 6.91313 9.92173C7.20682 9.39684 7.60428 9.01001 7.92408 8.75798C8.54071 8.27201 9.27813 7.94363 9.96679 7.71408C11.3699 7.24638 13.1492 7 15 7ZM4.07359 4.96553C3.59686 4.80662 3.27937 4.63922 3.09935 4.5C3.27937 4.36078 3.59686 4.19338 4.07359 4.03447C5.03245 3.71485 6.42072 3.5 8 3.5C9.57928 3.5 10.9675 3.71485 11.9264 4.03447C12.4031 4.19338 12.7206 4.36078 12.9006 4.5C12.7206 4.63922 12.4031 4.80662 11.9264 4.96553C10.9675 5.28515 9.57928 5.5 8 5.5C6.42072 5.5 5.03245 5.28515 4.07359 4.96553Z" fill="#475467"/>
<path d="M1 12.7948V9.89844C1.4101 10.1324 1.8787 10.3421 2.36749 10.5245C3.64395 11.0009 5.19318 11.3405 6.50123 11.4089C6.50041 11.4389 6.5 11.4691 6.5 11.4996V14.4192C5.37069 14.3587 3.98946 14.1041 2.84195 13.7269C2.1797 13.5091 1.63929 13.2647 1.28042 13.0217C1.14328 12.9289 1.05576 12.8526 1 12.7948Z" fill="#475467"/>
<path d="M1 14.5938V16.5013C1 17.2152 1.43495 17.7361 1.85254 18.0652C2.2814 18.4032 2.84 18.6638 3.44113 18.8642C4.29506 19.1487 5.34685 19.3485 6.5 19.4418V15.9227C5.20769 15.8622 3.66002 15.5764 2.37348 15.1535C1.88511 14.993 1.41446 14.8063 1 14.5938Z" fill="#475467"/>
</svg>
