<svg width="32" height="33" viewBox="0 0 32 33" fill="none" xmlns="http://www.w3.org/2000/svg">
<path d="M8.66667 18.5H23.3333V17.1667H8.66667V18.5ZM8.66667 14.5H23.3333V13.1667H8.66667V14.5ZM8.66667 10.5H23.3333V9.16667H8.66667V10.5ZM6.15467 23.1667C5.54044 23.1667 5.028 22.9613 4.61733 22.5507C4.20667 22.14 4.00089 21.6276 4 21.0133V6.65334C4 6.04 4.20578 5.52756 4.61733 5.116C5.02889 4.70445 5.54089 4.49911 6.15333 4.5H25.8467C26.46 4.5 26.972 4.70534 27.3827 5.116C27.7933 5.52667 27.9991 6.03911 28 6.65334V27.2693L23.8973 23.1667H6.15467Z" fill="#475467"/>
</svg>
