<svg width="24" height="25" viewBox="0 0 24 25" fill="none" xmlns="http://www.w3.org/2000/svg">
<path fill-rule="evenodd" clip-rule="evenodd" d="M5 7.5C5 6.94772 5.44772 6.5 6 6.5H7C7.55228 6.5 8 6.94772 8 7.5C8 8.05228 7.55228 8.5 7 8.5H6C5.44772 8.5 5 8.05228 5 7.5ZM9 7.5C9 6.94772 9.44772 6.5 10 6.5H11C11.5523 6.5 12 6.94772 12 7.5C12 8.05228 11.5523 8.5 11 8.5H10C9.44772 8.5 9 8.05228 9 7.5ZM5 11.5C5 10.9477 5.44772 10.5 6 10.5H7C7.55228 10.5 8 10.9477 8 11.5C8 12.0523 7.55228 12.5 7 12.5H6C5.44772 12.5 5 12.0523 5 11.5ZM9 11.5C9 10.9477 9.44772 10.5 10 10.5H11C11.5523 10.5 12 10.9477 12 11.5C12 12.0523 11.5523 12.5 11 12.5H10C9.44772 12.5 9 12.0523 9 11.5ZM5 15.5C5 14.9477 5.44772 14.5 6 14.5H7C7.55228 14.5 8 14.9477 8 15.5C8 16.0523 7.55228 16.5 7 16.5H6C5.44772 16.5 5 16.0523 5 15.5ZM9 15.5C9 14.9477 9.44772 14.5 10 14.5H11C11.5523 14.5 12 14.9477 12 15.5C12 16.0523 11.5523 16.5 11 16.5H10C9.44772 16.5 9 16.0523 9 15.5Z" fill="#475467"/>
<path fill-rule="evenodd" clip-rule="evenodd" d="M4 4.5C4 3.94772 4.44772 3.5 5 3.5H12C12.5523 3.5 13 3.94772 13 4.5V20.5H4V4.5ZM15 4.5V7.49997H20C21.6569 7.49997 23 8.84311 23 10.5V21.5C23 21.7652 22.8946 22.0196 22.7071 22.2071C22.5196 22.3946 22.2652 22.5 22 22.5H3C2.73479 22.5 2.48043 22.3946 2.29289 22.2071C2.10536 22.0196 2 21.7652 2 21.5V4.5C2 2.84315 3.34315 1.5 5 1.5H12C13.6569 1.5 15 2.84315 15 4.5ZM17.5 10.75C17.0858 10.75 16.75 11.0858 16.75 11.5C16.75 11.9142 17.0858 12.25 17.5 12.25H18.5C18.9142 12.25 19.25 11.9142 19.25 11.5C19.25 11.0858 18.9142 10.75 18.5 10.75H17.5ZM17.5 14.75C17.0858 14.75 16.75 15.0858 16.75 15.5C16.75 15.9142 17.0858 16.25 17.5 16.25H18.5C18.9142 16.25 19.25 15.9142 19.25 15.5C19.25 15.0858 18.9142 14.75 18.5 14.75H17.5Z" fill="#475467"/>
</svg>
