<svg width="24" height="25" viewBox="0 0 24 25" fill="none" xmlns="http://www.w3.org/2000/svg">
<path fill-rule="evenodd" clip-rule="evenodd" d="M3 4.25C3 2.73122 4.23122 1.5 5.75 1.5H19.75C21.2688 1.5 22.5 2.73122 22.5 4.25V20.25C22.5 21.7688 21.2688 23 19.75 23H5.75C4.23122 23 3 21.7688 3 20.25V19.25H2C1.44772 19.25 1 18.8023 1 18.25C1 17.6977 1.44772 17.25 2 17.25H3V13.25H2C1.44772 13.25 1 12.8023 1 12.25C1 11.6977 1.44772 11.25 2 11.25H3V7.25H2C1.44772 7.25 1 6.80228 1 6.25C1 5.69772 1.44772 5.25 2 5.25H3V4.25ZM9.36995 6.50969C9.60792 6.54831 9.81282 6.69897 9.92063 6.9146L11.4206 9.9146C11.565 10.2033 11.5084 10.5521 11.2801 10.7803L9.49977 12.5607C10.1938 13.7873 11.2125 14.806 12.4391 15.5001L14.2195 13.7197C14.4478 13.4914 14.7965 13.4348 15.0852 13.5792L18.0852 15.0792C18.3009 15.187 18.4515 15.3919 18.4901 15.6299C18.5287 15.8678 18.4506 16.1099 18.2801 16.2803L17.3659 17.1946C16.8611 17.6994 16.1387 18.0329 15.3503 17.9568C10.9592 17.5326 7.46724 14.0406 7.04305 9.64956C6.96688 8.86111 7.30042 8.13874 7.80527 7.63389L8.71948 6.71968C8.88995 6.54921 9.13198 6.47108 9.36995 6.50969Z" fill="#475467"/>
</svg>
