  <svg width="20" height="21" viewBox="0 0 20 21" fill="none" xmlns="http://www.w3.org/2000/svg">
      <path d="M9.9974 1.53906C14.945 1.53906 18.9557 5.54985 18.9557 10.4974C18.9557 15.445 14.945 19.4557 9.9974 19.4557C5.04985 19.4557 1.03906 15.445 1.03906 10.4974C1.03906 5.54985 5.04985 1.53906 9.9974 1.53906ZM8.02311 7.35124C7.69581 7.08429 7.2133 7.10314 6.9082 7.4082C6.60321 7.7133 6.5843 8.19584 6.85124 8.52311L6.9082 8.58659L8.81898 10.4974L6.90902 12.4082C6.5837 12.7336 6.5836 13.2612 6.90902 13.5866C7.23445 13.9117 7.76205 13.9119 8.0874 13.5866L9.9974 11.6758L11.9074 13.5866L11.9709 13.6436C12.2981 13.9105 12.7806 13.8915 13.0858 13.5866C13.3908 13.2816 13.4102 12.799 13.1436 12.4716L13.0858 12.4082L11.175 10.4974L13.0866 8.58659L13.1436 8.52311C13.4105 8.19583 13.3916 7.7133 13.0866 7.4082C12.7815 7.10314 12.299 7.08429 11.9716 7.35124L11.9082 7.4082L9.9974 9.31898L8.08659 7.4082L8.02311 7.35124Z" fill="currentColor" />
    </svg>