<svg width="24" height="25" viewBox="0 0 24 25" fill="none" xmlns="http://www.w3.org/2000/svg">
<path d="M19.5 18C19.5 18.663 19.2366 19.2989 18.7678 19.7678C18.2989 20.2366 17.663 20.5 17 20.5C16.337 20.5 15.7011 20.2366 15.2322 19.7678C14.7634 19.2989 14.5 18.663 14.5 18C14.5 17.337 14.7634 16.7011 15.2322 16.2322C15.7011 15.7634 16.337 15.5 17 15.5C17.663 15.5 18.2989 15.7634 18.7678 16.2322C19.2366 16.7011 19.5 17.337 19.5 18ZM9.5 18C9.5 18.663 9.23661 19.2989 8.76777 19.7678C8.29893 20.2366 7.66304 20.5 7 20.5C6.33696 20.5 5.70107 20.2366 5.23223 19.7678C4.76339 19.2989 4.5 18.663 4.5 18C4.5 17.337 4.76339 16.7011 5.23223 16.2322C5.70107 15.7634 6.33696 15.5 7 15.5C7.66304 15.5 8.29893 15.7634 8.76777 16.2322C9.23661 16.7011 9.5 17.337 9.5 18Z" stroke="#475467" stroke-width="2"/>
<path d="M14.5 18H9.5M19.5 18H20.263C20.483 18 20.593 18 20.685 17.988C21.016 17.9468 21.3239 17.7964 21.5599 17.5606C21.7959 17.3248 21.9465 17.017 21.988 16.686C22 16.593 22 16.483 22 16.263V13.5C22 11.7761 21.3152 10.1228 20.0962 8.90381C18.8772 7.68482 17.2239 7 15.5 7M15 16V7.5C15 6.086 15 5.379 14.56 4.94C14.122 4.5 13.415 4.5 12 4.5H5C3.586 4.5 2.879 4.5 2.44 4.94C2 5.378 2 6.085 2 7.5V15.5C2 16.435 2 16.902 2.201 17.25C2.33265 17.478 2.52199 17.6674 2.75 17.799C3.098 18 3.565 18 4.5 18" stroke="#475467" stroke-width="2" stroke-linecap="round" stroke-linejoin="round"/>
<path d="M9.327 12.5L10.813 11.326C11.604 10.7 12 10.388 12 10M12 10C12 9.612 11.604 9.3 10.813 8.674L9.327 7.5M12 10H5" stroke="#475467" stroke-width="2" stroke-linecap="round" stroke-linejoin="round"/>
</svg>
