<svg width="30" height="30" viewBox="0 0 30 30" fill="none" xmlns="http://www.w3.org/2000/svg">
<path d="M0 15.0018C0 9.26125 4.64406 4.61719 10.3846 4.61719L10.5334 4.6262C10.8749 4.67054 11.1818 4.86676 11.3657 5.16406C11.5496 5.46165 11.587 5.82413 11.4739 6.14963L11.4168 6.28636L9.87831 9.36328C9.59342 9.93305 8.90069 10.1646 8.33083 9.88011C7.76106 9.59522 7.52948 8.9025 7.814 8.33263L8.39392 7.17128C4.89291 8.05626 2.30769 11.2229 2.30769 15.0018C2.30769 15.639 1.79109 16.1556 1.15385 16.1556C0.5166 16.1556 0 15.639 0 15.0018Z" fill="#475467"/>
<path d="M29.9988 15.0015C29.9988 20.7421 25.3548 25.3861 19.6142 25.3861L19.4654 25.377C19.1239 25.3327 18.8171 25.1366 18.6331 24.8392C18.4493 24.5417 18.4117 24.1792 18.525 23.8537L18.582 23.7169L20.1205 20.64C20.4054 20.0703 21.0982 19.8387 21.668 20.1232C22.2377 20.4081 22.4693 21.1009 22.1848 21.6707L21.6048 22.832C25.1059 21.947 27.6911 18.7804 27.6911 15.0015C27.6911 14.3643 28.2077 13.8477 28.845 13.8477C29.4822 13.8477 29.9988 14.3643 29.9988 15.0015Z" fill="#475467"/>
<path d="M27.3053 0C28.7922 0 29.9976 1.20538 29.9976 2.69231V8.84615C29.9976 10.3331 28.7922 11.5385 27.3053 11.5385H16.5361C15.0491 11.5385 13.8438 10.3331 13.8438 8.84615V2.69231C13.8438 1.20538 15.0491 0 16.5361 0H27.3053ZM21.9207 4.23077C21.071 4.23077 20.3822 4.91957 20.3822 5.76923C20.3822 6.61889 21.071 7.30769 21.9207 7.30769H21.9342L22.0919 7.30018C22.8676 7.22134 23.4727 6.56575 23.4727 5.76923C23.4727 4.97271 22.8676 4.31712 22.0919 4.23828L21.9342 4.23077H21.9207Z" fill="#475467"/>
<path d="M13.4615 18.4609C14.9485 18.4609 16.1538 19.6663 16.1538 21.1532V27.3071C16.1538 28.794 14.9485 29.9994 13.4615 29.9994H2.69231C1.20538 29.9994 0 28.794 0 27.3071V21.1532C0 19.6663 1.20538 18.4609 2.69231 18.4609H13.4615ZM8.07692 22.6917C7.22726 22.6917 6.53846 23.3805 6.53846 24.2302C6.53846 25.0799 7.22726 25.7686 8.07692 25.7686H8.09045L8.2482 25.7611C9.02392 25.6823 9.62891 25.0266 9.62891 24.2302C9.62891 23.4337 9.02392 22.778 8.2482 22.6992L8.09045 22.6917H8.07692Z" fill="#475467"/>
</svg>
