<svg width="22" height="20" viewBox="0 0 22 20" fill="none" xmlns="http://www.w3.org/2000/svg">
    <path fill-rule="evenodd" clip-rule="evenodd" d="M7.70208 0.00963903C7.41768 -0.028441 7.17792 0.0538289 7.01469 0.125059C6.86464 0.190539 6.69535 0.286119 6.53113 0.378849L4.28197 1.66735C4.13616 1.7705 3.93913 1.93471 3.82604 2.20043C3.70258 2.49052 3.74241 2.7829 3.77174 2.95202C3.80348 3.13501 3.86932 3.38696 3.93233 3.62807C4.32857 5.14488 3.36065 6.7766 1.79378 7.19652L1.76618 7.20391C1.52912 7.26742 1.30699 7.32693 1.13327 7.38956C0.970744 7.44816 0.699124 7.55815 0.507724 7.80648C0.331824 8.03466 0.285194 8.28486 0.266844 8.46186C0.249924 8.62516 0.249964 8.82046 0.250004 9.01046V10.9897C0.249964 11.1797 0.249924 11.375 0.266844 11.5383C0.285194 11.7153 0.331814 11.9654 0.507704 12.1936C0.699094 12.4419 0.970714 12.5519 1.13322 12.6105C1.30694 12.6732 1.79374 12.8036 1.79374 12.8036C3.36003 13.2235 4.32731 14.8549 3.93082 16.3719C3.93082 16.3719 3.80192 16.8649 3.77017 17.0479C3.74082 17.217 3.70097 17.5094 3.82441 17.7995C3.93749 18.0653 4.13453 18.2295 4.28035 18.3327L6.52952 19.6212C6.6937 19.7139 6.86312 19.8095 7.01315 19.875C7.17639 19.9462 7.41618 20.0285 7.70059 19.9904C8.00977 19.949 8.23894 19.7725 8.37072 19.6623C8.51065 19.5453 8.86249 19.1963 8.86249 19.1963C9.4459 18.6176 10.2229 18.3281 11 18.3279C11.7771 18.3281 12.5541 18.6176 13.1375 19.1963C13.1375 19.1963 13.4894 19.5453 13.6293 19.6623C13.7611 19.7725 13.9902 19.949 14.2994 19.9904C14.5838 20.0285 14.8236 19.9462 14.9869 19.875C15.1369 19.8095 15.3062 19.7139 15.4704 19.6212L17.7196 18.3327C17.8655 18.2295 18.0625 18.0653 18.1756 17.7995C18.299 17.5094 18.2592 17.217 18.2298 17.0479C18.1981 16.8649 18.0692 16.3719 18.0692 16.3719C17.6727 14.8549 18.64 13.2235 20.2063 12.8036C20.2063 12.8036 20.6931 12.6732 20.8668 12.6105C21.0293 12.5519 21.3009 12.4419 21.4923 12.1936C21.6682 11.9654 21.7148 11.7153 21.7332 11.5383C21.7501 11.375 21.75 11.1797 21.75 10.9897V9.01046C21.75 8.82046 21.7501 8.62516 21.7332 8.46186C21.7148 8.28486 21.6682 8.03466 21.4923 7.80648C21.3009 7.55815 21.0293 7.44816 20.8667 7.38956C20.693 7.32693 20.4709 7.26742 20.2338 7.20391L20.2062 7.19652C18.6393 6.7766 17.6714 5.14488 18.0677 3.62807C18.1307 3.38696 18.1965 3.13501 18.2283 2.95202C18.2576 2.7829 18.2974 2.49052 18.174 2.20043C18.0609 1.93471 17.8638 1.7705 17.718 1.66735L15.4689 0.378849C15.3046 0.286119 15.1354 0.190539 14.9853 0.125059C14.8221 0.0538289 14.5823 -0.028441 14.2979 0.00963903C13.9888 0.051039 13.7596 0.227489 13.6278 0.337659C13.4879 0.454629 13.136 0.803649 13.136 0.803649C12.5529 1.3818 11.7765 1.67099 11 1.6712C10.2235 1.67099 9.4471 1.3818 8.86405 0.803649C8.86405 0.803649 8.51213 0.454629 8.37221 0.337659C8.24043 0.227489 8.01124 0.051039 7.70208 0.00963903ZM11 13.5C12.933 13.5 14.5 11.933 14.5 9.99996C14.5 8.06696 12.933 6.5 11 6.5C9.067 6.5 7.5 8.06696 7.5 9.99996C7.5 11.933 9.067 13.5 11 13.5Z" fill="#E87200" />
  </svg>