<svg width="46" height="46" viewBox="0 0 46 46" fill="none" xmlns="http://www.w3.org/2000/svg">
<rect x="3" y="3" width="40" height="40" rx="20" fill="#F2F4F7"/>
<rect x="3" y="3" width="40" height="40" rx="20" stroke="#F9FAFB" stroke-width="6"/>
<g clip-path="url(#clip0_7703_12660)">
<path d="M26.3326 26.3352L22.9992 23.0019M22.9992 23.0019L19.6659 26.3352M22.9992 23.0019V30.5019M29.9909 28.3269C30.8037 27.8838 31.4458 27.1826 31.8158 26.334C32.1858 25.4855 32.2627 24.5379 32.0344 23.6408C31.8061 22.7436 31.2855 21.9481 30.5548 21.3797C29.8241 20.8113 28.925 20.5025 27.9992 20.5019H26.9492C26.697 19.5262 26.2269 18.6205 25.5742 17.8527C24.9215 17.0849 24.1033 16.4751 23.181 16.069C22.2587 15.663 21.2564 15.4713 20.2493 15.5084C19.2423 15.5455 18.2568 15.8104 17.3669 16.2832C16.477 16.7561 15.7058 17.4244 15.1114 18.2382C14.517 19.0519 14.1148 19.9898 13.9351 20.9814C13.7553 21.9729 13.8027 22.9923 14.0736 23.9629C14.3445 24.9335 14.8319 25.8301 15.4992 26.5852" stroke="#E87200" stroke-width="1.66667" stroke-linecap="round" stroke-linejoin="round"/>
</g>
<defs>
<clipPath id="clip0_7703_12660">
<rect width="20" height="20" fill="white" transform="translate(13 13)"/>
</clipPath>
</defs>
</svg>
