<svg width="24" height="25" viewBox="0 0 24 25" fill="none" xmlns="http://www.w3.org/2000/svg">
<path fill-rule="evenodd" clip-rule="evenodd" d="M16.345 3.99137C16.2701 3.91264 16.1794 3.85051 16.0789 3.80898C15.9785 3.76745 15.8704 3.74745 15.7617 3.75026H8.71504C8.60549 3.74957 8.49688 3.77051 8.39544 3.81188C8.294 3.85326 8.20173 3.91425 8.12392 3.99137C7.97078 4.14708 7.88429 4.35631 7.88281 4.5747V12.0414H16.5939V4.5747C16.5896 4.35538 16.5003 4.14629 16.345 3.99137ZM12.8295 7.10248H11.6395C11.4336 7.08251 11.2426 6.98662 11.1036 6.83349C10.9646 6.68035 10.8876 6.48096 10.8876 6.27415C10.8876 6.06734 10.9646 5.86794 11.1036 5.71481C11.2426 5.56168 11.4336 5.46579 11.6395 5.44582H12.8295C13.0353 5.46579 13.2264 5.56168 13.3653 5.71481C13.5043 5.86794 13.5813 6.06734 13.5813 6.27415C13.5813 6.48096 13.5043 6.68035 13.3653 6.83349C13.2264 6.98662 13.0353 7.08251 12.8295 7.10248Z" fill="#475467"/>
<path fill-rule="evenodd" clip-rule="evenodd" d="M3.99628 12.5196C3.88736 12.5185 3.77932 12.5391 3.67839 12.5801C3.57747 12.6211 3.48566 12.6816 3.40828 12.7583C3.3309 12.8349 3.26947 12.9262 3.22756 13.0267C3.18564 13.1272 3.16406 13.2351 3.16406 13.344V20.9862H11.8752V12.5196H3.99628ZM8.11073 15.8329H6.92851C6.81298 15.8441 6.69639 15.831 6.58623 15.7945C6.47606 15.758 6.37475 15.6988 6.28881 15.6208C6.20287 15.5428 6.13419 15.4477 6.0872 15.3415C6.0402 15.2354 6.01592 15.1206 6.01592 15.0046C6.01592 14.8885 6.0402 14.7737 6.0872 14.6676C6.13419 14.5615 6.20287 14.4663 6.28881 14.3883C6.37475 14.3103 6.47606 14.2512 6.58623 14.2146C6.69639 14.1781 6.81298 14.165 6.92851 14.1762H8.11073C8.22625 14.165 8.34284 14.1781 8.45301 14.2146C8.56318 14.2512 8.66448 14.3103 8.75043 14.3883C8.83637 14.4663 8.90504 14.5615 8.95204 14.6676C8.99903 14.7737 9.02331 14.8885 9.02331 15.0046C9.02331 15.1206 8.99903 15.2354 8.95204 15.3415C8.90504 15.4477 8.83637 15.5428 8.75043 15.6208C8.66448 15.6988 8.56318 15.758 8.45301 15.7945C8.34284 15.831 8.22625 15.8441 8.11073 15.8329Z" fill="#475467"/>
<path fill-rule="evenodd" clip-rule="evenodd" d="M21.0558 12.7606C20.9792 12.6841 20.8882 12.6234 20.7881 12.5821C20.688 12.5407 20.5808 12.5194 20.4725 12.5195H12.5547V20.9862H21.2658V13.344C21.272 13.13 21.1969 12.9216 21.0558 12.7606ZM17.5325 15.8329H16.3114C16.1958 15.8441 16.0792 15.831 15.9691 15.7945C15.8589 15.7579 15.7576 15.6988 15.6717 15.6208C15.5857 15.5428 15.517 15.4476 15.47 15.3415C15.4231 15.2354 15.3988 15.1206 15.3988 15.0045C15.3988 14.8885 15.4231 14.7737 15.47 14.6676C15.517 14.5614 15.5857 14.4663 15.6717 14.3883C15.7576 14.3103 15.8589 14.2511 15.9691 14.2146C16.0792 14.1781 16.1958 14.165 16.3114 14.1762H17.4936C17.6091 14.165 17.7257 14.1781 17.8359 14.2146C17.946 14.2511 18.0473 14.3103 18.1333 14.3883C18.2192 14.4663 18.2879 14.5614 18.3349 14.6676C18.3819 14.7737 18.4062 14.8885 18.4062 15.0045C18.4062 15.1206 18.3819 15.2354 18.3349 15.3415C18.2879 15.4476 18.2192 15.5428 18.1333 15.6208C18.0473 15.6988 17.946 15.7579 17.8359 15.7945C17.7257 15.831 17.6091 15.8441 17.4936 15.8329H17.5325Z" fill="#475467"/>
</svg>
