<svg width="30" height="30" viewBox="0 0 30 30" fill="none" xmlns="http://www.w3.org/2000/svg">
<path fill-rule="evenodd" clip-rule="evenodd" d="M8.41126 1.99611C8.74884 0.814582 9.82876 0 11.0576 0H17.2382C18.4669 0 19.5469 0.814596 19.8844 1.99611L20.9754 5.8144L18.3292 6.57049L17.2382 2.7522H11.0576L9.96662 6.57049L7.32031 5.8144L8.41126 1.99611Z" fill="#475467"/>
<path fill-rule="evenodd" clip-rule="evenodd" d="M16.2109 22.4672C16.2109 19.0271 18.9997 16.2383 22.4399 16.2383C25.88 16.2383 28.6688 19.0271 28.6688 22.4672C28.6688 23.6905 28.3161 24.8316 27.7069 25.794L29.5672 27.6485C30.1055 28.185 30.1069 29.0564 29.5704 29.5947C29.0338 30.1329 28.1625 30.1343 27.6243 29.5977L25.7594 27.7389C24.7985 28.3452 23.6602 28.6961 22.4399 28.6961C18.9997 28.6961 16.2109 25.9073 16.2109 22.4672ZM22.4399 18.9905C20.5196 18.9905 18.9631 20.547 18.9631 22.4672C18.9631 24.3874 20.5196 25.9439 22.4399 25.9439C24.3601 25.9439 25.9166 24.3874 25.9166 22.4672C25.9166 20.547 24.3601 18.9905 22.4399 18.9905Z" fill="#475467"/>
<path d="M3.82333 4.88672C1.73334 4.88672 0.0390625 6.581 0.0390625 8.67099V24.4962C0.0390625 26.5862 1.73334 28.2804 3.82333 28.2804H16.5213C15.0511 26.7839 14.1441 24.7322 14.1441 22.4685C14.1441 17.8884 17.8571 14.1754 22.4371 14.1754C24.7008 14.1754 26.7526 15.0823 28.2491 16.5526V8.67099C28.2491 6.581 26.5548 4.88672 24.4648 4.88672H3.82333Z" fill="#475467"/>
</svg>
