<svg width="24" height="25" viewBox="0 0 24 25" fill="none" xmlns="http://www.w3.org/2000/svg">
<path d="M7.14625 17.6737C7.41875 17.6737 7.64708 17.5812 7.83125 17.3962C8.01458 17.2121 8.10625 16.9833 8.10625 16.71C8.10625 16.4367 8.01375 16.2083 7.82875 16.025C7.64375 15.8417 7.415 15.75 7.1425 15.75C6.87 15.75 6.64167 15.8425 6.4575 16.0275C6.27333 16.2125 6.18167 16.4412 6.1825 16.7137C6.18333 16.9862 6.27583 17.2142 6.46 17.3975C6.64417 17.5808 6.87292 17.6737 7.14625 17.6737ZM7.14625 12.9612C7.41875 12.9612 7.64708 12.8692 7.83125 12.685C8.01458 12.5 8.10625 12.2708 8.10625 11.9975C8.10625 11.7242 8.01375 11.4962 7.82875 11.3137C7.64375 11.1312 7.415 11.0396 7.1425 11.0387C6.87 11.0379 6.64167 11.13 6.4575 11.315C6.27333 11.5 6.18167 11.7292 6.1825 12.0025C6.18333 12.2758 6.27583 12.5037 6.46 12.6862C6.64417 12.8687 6.87292 12.9604 7.14625 12.9612ZM7.14625 8.25C7.41875 8.25 7.64708 8.15792 7.83125 7.97375C8.01458 7.78875 8.10625 7.55958 8.10625 7.28625C8.10625 7.01292 8.01375 6.785 7.82875 6.6025C7.64375 6.42 7.415 6.32833 7.1425 6.3275C6.87 6.32667 6.64167 6.41875 6.4575 6.60375C6.27417 6.78875 6.1825 7.0175 6.1825 7.29C6.1825 7.5625 6.275 7.79083 6.46 7.975C6.645 8.15917 6.87375 8.25083 7.14625 8.25ZM11.615 17.3375H17.0962C17.2737 17.3375 17.4221 17.2771 17.5412 17.1562C17.6604 17.0354 17.7204 16.8871 17.7212 16.7112C17.7221 16.5354 17.6621 16.3871 17.5412 16.2662C17.4204 16.1454 17.2721 16.0854 17.0962 16.0862H11.615C11.4383 16.0862 11.29 16.1462 11.17 16.2662C11.05 16.3862 10.99 16.535 10.99 16.7125C10.99 16.89 11.05 17.0383 11.17 17.1575C11.29 17.2767 11.4383 17.3362 11.615 17.3362M11.615 12.625H17.0962C17.2737 12.625 17.4221 12.565 17.5412 12.445C17.6604 12.325 17.7204 12.1762 17.7212 11.9987C17.7221 11.8212 17.6621 11.6729 17.5412 11.5537C17.4204 11.4346 17.2721 11.375 17.0962 11.375H11.615C11.4383 11.375 11.29 11.435 11.17 11.555C11.05 11.675 10.99 11.8237 10.99 12.0012C10.99 12.1788 11.05 12.3271 11.17 12.4462C11.29 12.5654 11.4383 12.625 11.615 12.625ZM11.615 7.9125H17.0962C17.2737 7.9125 17.4221 7.85292 17.5412 7.73375C17.6612 7.61375 17.7212 7.465 17.7212 7.2875C17.7212 7.11 17.6612 6.96167 17.5412 6.8425C17.4212 6.72333 17.2729 6.66375 17.0962 6.66375H11.615C11.4383 6.66375 11.29 6.72375 11.17 6.84375C11.05 6.96375 10.99 7.1125 10.99 7.29C10.99 7.4675 11.05 7.61583 11.17 7.735C11.29 7.85417 11.4383 7.91375 11.615 7.91375M4.02 22C3.44417 22 2.96375 21.8075 2.57875 21.4225C2.19375 21.0375 2.00083 20.5567 2 19.98V4.02C2 3.44417 2.19292 2.96375 2.57875 2.57875C2.96458 2.19375 3.445 2.00083 4.02 2H19.9812C20.5562 2 21.0367 2.19292 21.4225 2.57875C21.8083 2.96458 22.0008 3.445 22 4.02V19.9812C22 20.5562 21.8075 21.0367 21.4225 21.4225C21.0375 21.8083 20.5567 22.0008 19.98 22H4.02Z" fill="#1D2939"/>
</svg>
