<svg width="18" height="18" viewBox="0 0 18 18" fill="none" xmlns="http://www.w3.org/2000/svg">
      <path fill-rule="evenodd" clip-rule="evenodd" d="M16.7861 9.11588L16.7816 9.12247C16.6727 9.279 16.3618 9.7257 16.1686 9.97627C15.7773 10.4837 15.2101 11.1618 14.5068 11.8418C13.1227 13.1803 11.1105 14.625 8.8125 14.625C6.51452 14.625 4.50229 13.1803 3.11817 11.8418C2.41495 11.1618 1.84771 10.4837 1.45644 9.97627C1.26346 9.726 0.952867 9.27975 0.843607 9.1227L0.838635 9.11558C0.720455 8.93078 0.720455 8.69422 0.838635 8.50942L0.843562 8.50238C0.952777 8.3454 1.26343 7.899 1.45644 7.64873C1.84771 7.14127 2.41495 6.46318 3.11817 5.78314C4.50229 4.44464 6.51452 3 8.8125 3C11.1105 3 13.1227 4.44464 14.5068 5.78314C15.2101 6.46318 15.7773 7.14127 16.1686 7.64873C16.3616 7.89908 16.6723 8.34563 16.7816 8.50245L16.7864 8.50942C16.9046 8.69422 16.9043 8.93115 16.7861 9.11588ZM8.8125 11.625C7.2592 11.625 6 10.3658 6 8.8125C6 7.2592 7.2592 6 8.8125 6C10.3658 6 11.625 7.2592 11.625 8.8125C11.625 10.3658 10.3658 11.625 8.8125 11.625Z" fill="#344054" />
    </svg>