<svg width="32" height="30" viewBox="0 0 32 30" fill="none" xmlns="http://www.w3.org/2000/svg">
<path fill-rule="evenodd" clip-rule="evenodd" d="M23.3131 0C18.6659 0 14.8984 3.76736 14.8984 8.41463C14.8984 13.0619 18.6659 16.8293 23.3131 16.8293C27.9603 16.8293 31.7277 13.0619 31.7277 8.41463C31.7277 3.76736 27.9603 0 23.3131 0ZM27.0831 6.92214C27.4711 6.45647 27.4081 5.76439 26.9425 5.37632C26.4768 4.98827 25.7848 5.05118 25.3967 5.51685L22.5076 8.9838L21.1623 7.63853C20.7337 7.20989 20.0388 7.20989 19.6102 7.63853C19.1816 8.06715 19.1816 8.76209 19.6102 9.19071L21.8053 11.3858C22.0234 11.6039 22.3231 11.7202 22.6311 11.7062C22.9392 11.6922 23.2272 11.5493 23.4246 11.3124L27.0831 6.92214Z" fill="#475467"/>
<path fill-rule="evenodd" clip-rule="evenodd" d="M13.1001 4.39062C12.6087 5.63672 12.3388 6.99435 12.3388 8.41502C12.3388 9.56219 12.5148 10.6683 12.8413 11.7077H0.289669C0.281635 11.7077 0.273615 11.7078 0.265625 11.708V8.41502C0.265625 6.19241 2.06741 4.39062 4.29002 4.39062H13.1001ZM0.265625 13.9025V25.976C0.265625 28.1986 2.06741 30.0004 4.29002 30.0004H27.7047C29.9273 30.0004 31.729 28.1986 31.729 25.976V15.4622C29.7157 17.8637 26.6934 19.3906 23.3144 19.3906C19.2518 19.3906 15.7049 17.1835 13.8072 13.9028H0.289669C0.281635 13.9028 0.273615 13.9027 0.265625 13.9025ZM14.1681 23.0492C14.1681 22.443 14.6595 21.9516 15.2656 21.9516H16.729C17.3352 21.9516 17.8266 22.443 17.8266 23.0492C17.8266 23.6553 17.3352 24.1467 16.729 24.1467H15.2656C14.6595 24.1467 14.1681 23.6553 14.1681 23.0492ZM20.0217 23.0492C20.0217 22.443 20.5131 21.9516 21.1193 21.9516H25.5095C26.1157 21.9516 26.6071 22.443 26.6071 23.0492C26.6071 23.6553 26.1157 24.1467 25.5095 24.1467H21.1193C20.5131 24.1467 20.0217 23.6553 20.0217 23.0492Z" fill="#475467"/>
</svg>
