<svg width="24" height="25" viewBox="0 0 24 25" fill="none" xmlns="http://www.w3.org/2000/svg">
<path fill-rule="evenodd" clip-rule="evenodd" d="M2 5.5C2 3.29086 3.79086 1.5 6 1.5H18C20.2091 1.5 22 3.29086 22 5.5V16.5C22 18.7091 20.2091 20.5 18 20.5C17.4477 20.5 17 20.0523 17 19.5C17 18.9477 17.4477 18.5 18 18.5C19.1046 18.5 20 17.6046 20 16.5V5.5C20 4.39543 19.1046 3.5 18 3.5H6C4.89543 3.5 4 4.39543 4 5.5V16.5C4 17.6046 4.89543 18.5 6 18.5C6.55228 18.5 7 18.9477 7 19.5C7 20.0523 6.55228 20.5 6 20.5C3.79086 20.5 2 18.7091 2 16.5V5.5Z" fill="#475467"/>
<path fill-rule="evenodd" clip-rule="evenodd" d="M7 10.5C7 9.94772 7.44772 9.5 8 9.5H16C16.5523 9.5 17 9.94772 17 10.5C17 11.0523 16.5523 11.5 16 11.5H8C7.44772 11.5 7 11.0523 7 10.5Z" fill="#475467"/>
<path fill-rule="evenodd" clip-rule="evenodd" d="M7 6.5C7 5.94772 7.44772 5.5 8 5.5H12C12.5523 5.5 13 5.94772 13 6.5C13 7.05228 12.5523 7.5 12 7.5H8C7.44772 7.5 7 7.05228 7 6.5Z" fill="#475467"/>
<path fill-rule="evenodd" clip-rule="evenodd" d="M8.25 15.5C8.25 14.5335 9.0335 13.75 10 13.75H14C14.9665 13.75 15.75 14.5335 15.75 15.5V22.5C15.75 22.7766 15.5978 23.0307 15.3539 23.1613C15.11 23.2918 14.8141 23.2775 14.584 23.124L12 21.4014L9.41603 23.124C9.18588 23.2775 8.88997 23.2918 8.64611 23.1613C8.40224 23.0307 8.25 22.7766 8.25 22.5V15.5Z" fill="#475467"/>
</svg>
