<svg width="24" height="25" viewBox="0 0 24 25" fill="none" xmlns="http://www.w3.org/2000/svg">
<path fill-rule="evenodd" clip-rule="evenodd" d="M12 3.5C10.3431 3.5 9 4.84315 9 6.5V8.5H7V6.5C7 3.73858 9.23858 1.5 12 1.5C14.7614 1.5 17 3.73858 17 6.5V8.5H15V6.5C15 4.84315 13.6569 3.5 12 3.5Z" fill="#475467"/>
<path fill-rule="evenodd" clip-rule="evenodd" d="M5.00261 7.75C4.62938 7.75 4.31293 8.02445 4.26015 8.39393L2.74933 18.9697C2.4266 21.2288 4.17958 23.25 6.46164 23.25H17.5436C19.8256 23.25 21.5786 21.2288 21.2559 18.9697L19.7451 8.39394C19.6923 8.02445 19.3759 7.75 19.0026 7.75H5.00261ZM10.5 11.5C10.5 10.9477 10.0523 10.5 9.5 10.5C8.94772 10.5 8.5 10.9477 8.5 11.5C8.5 13.433 10.067 15 12 15C13.933 15 15.5 13.433 15.5 11.5C15.5 10.9477 15.0523 10.5 14.5 10.5C13.9477 10.5 13.5 10.9477 13.5 11.5C13.5 12.3284 12.8284 13 12 13C11.1716 13 10.5 12.3284 10.5 11.5Z" fill="#475467"/>
</svg>
