<svg width="26" height="30" viewBox="0 0 26 30" fill="none" xmlns="http://www.w3.org/2000/svg">
<path fill-rule="evenodd" clip-rule="evenodd" d="M7.07031 2.44183C7.07031 1.09324 8.16356 0 9.51215 0H16.4888C17.8374 0 18.9306 1.09324 18.9306 2.44183C18.9306 3.79042 17.8374 4.88367 16.4888 4.88367H9.51215C8.16356 4.88367 7.07031 3.79042 7.07031 2.44183Z" fill="#475467"/>
<path fill-rule="evenodd" clip-rule="evenodd" d="M5.25648 2.44258C5.25648 2.32514 5.26124 2.2088 5.27058 2.09375H3.93092C1.81171 2.09375 0.09375 3.81171 0.09375 5.93092V26.1633C0.09375 28.2825 1.81171 30.0004 3.93092 30.0004H22.0703C24.1895 30.0004 25.9074 28.2825 25.9074 26.1633V5.93092C25.9074 3.81171 24.1895 2.09375 22.0703 2.09375H20.7306C20.7399 2.2088 20.7447 2.32514 20.7447 2.44258C20.7447 4.79298 18.8394 6.69835 16.4889 6.69835H9.51225C7.16185 6.69835 5.25648 4.79298 5.25648 2.44258ZM7.41925 12.5588C6.84129 12.5588 6.37275 13.0273 6.37275 13.6053C6.37275 14.1832 6.84129 14.6518 7.41925 14.6518H18.5819C19.1599 14.6518 19.6284 14.1832 19.6284 13.6053C19.6284 13.0273 19.1599 12.5588 18.5819 12.5588H7.41925ZM7.41925 19.5354C6.84129 19.5354 6.37275 20.004 6.37275 20.5819C6.37275 21.1599 6.84129 21.6284 7.41925 21.6284H12.2033C12.7812 21.6284 13.2498 21.1599 13.2498 20.5819C13.2498 20.004 12.7812 19.5354 12.2033 19.5354H7.41925Z" fill="#475467"/>
</svg>
