<svg width="16" height="16" viewBox="0 0 16 16" fill="none" xmlns="http://www.w3.org/2000/svg">
<path fill-rule="evenodd" clip-rule="evenodd" d="M13.2559 2.74408C13.5813 3.06951 13.5813 3.59715 13.2559 3.92259L3.92259 13.2559C3.59715 13.5813 3.06951 13.5813 2.74408 13.2559C2.41864 12.9305 2.41864 12.4029 2.74408 12.0774L12.0774 2.74408C12.4029 2.41864 12.9305 2.41864 13.2559 2.74408Z" fill="#344054"/>
<path fill-rule="evenodd" clip-rule="evenodd" d="M2.74408 2.74408C3.06951 2.41864 3.59715 2.41864 3.92259 2.74408L13.2559 12.0774C13.5813 12.4029 13.5813 12.9305 13.2559 13.2559C12.9305 13.5813 12.4029 13.5813 12.0774 13.2559L2.74408 3.92259C2.41864 3.59715 2.41864 3.06951 2.74408 2.74408Z" fill="#344054"/>
</svg>
