<svg width="24" height="25" viewBox="0 0 24 25" fill="none" xmlns="http://www.w3.org/2000/svg">
<path fill-rule="evenodd" clip-rule="evenodd" d="M13.4285 6.16972C12.8751 6.08266 12.3135 6.2658 11.9178 6.66234L4.00343 14.5935C3.32126 15.2772 3.32184 16.3842 4.00475 17.0671L9.59106 22.6534C10.2747 23.337 11.383 23.3368 12.0664 22.653L19.9926 14.7217C20.3949 14.3191 20.5763 13.7462 20.4791 13.1856L19.5305 7.71547C19.479 7.41852 19.2548 7.18124 18.9613 7.11306L18.0149 6.89323C17.9973 6.88915 17.9796 6.8857 17.9618 6.8829L13.4285 6.16972ZM11.3273 11.1866C10.775 11.1866 10.3273 11.6344 10.3273 12.1866C10.3273 12.7389 10.775 13.1866 11.3273 13.1866H11.3366C11.8888 13.1866 12.3366 12.7389 12.3366 12.1866C12.3366 11.6344 11.8888 11.1866 11.3366 11.1866H11.3273ZM8.82861 14.3303C8.27633 14.3303 7.82861 14.778 7.82861 15.3303C7.82861 15.8827 8.27633 16.3303 8.82861 16.3303H13.8287C14.3809 16.3303 14.8287 15.8827 14.8287 15.3303C14.8287 14.778 14.3809 14.3303 13.8287 14.3303H8.82861ZM11.3296 17.4334C10.7773 17.4334 10.3296 17.8811 10.3296 18.4334C10.3296 18.9856 10.7773 19.4334 11.3296 19.4334H11.339C11.8912 19.4334 12.339 18.9856 12.339 18.4334C12.339 17.8811 11.8912 17.4334 11.339 17.4334H11.3296Z" fill="#475467"/>
<path fill-rule="evenodd" clip-rule="evenodd" d="M14.1439 3.98406C14.8051 3.72708 15.2858 3.82567 15.6503 4.05625C16.0538 4.31151 16.4158 4.7979 16.6325 5.45474C17.0862 6.82962 16.7493 8.33862 15.7582 9.00026C15.2989 9.30691 15.1751 9.92786 15.4818 10.3872C15.7884 10.8465 16.4094 10.9703 16.8687 10.6636C18.873 9.32554 19.1528 6.71001 18.5318 4.82804C18.2112 3.85644 17.613 2.93132 16.7195 2.36605C15.7876 1.77651 14.6353 1.64548 13.4134 2.12224L8.96142 3.90159C8.71866 3.99541 8.43563 4.0024 8.15083 3.93155C7.85537 3.85804 7.63164 3.71878 7.5264 3.61612C7.13106 3.23047 6.49795 3.23833 6.1123 3.63366C5.72665 4.029 5.7345 4.66212 6.12984 5.04777C6.85624 5.75636 8.31786 6.29955 9.69161 5.76354L14.1439 3.98406Z" fill="#475467"/>
</svg>
