<svg width="24" height="25" viewBox="0 0 24 25" fill="none" xmlns="http://www.w3.org/2000/svg">
<path fill-rule="evenodd" clip-rule="evenodd" d="M6.5 7C6.5 3.96243 8.96243 1.5 12 1.5C15.0376 1.5 17.5 3.96243 17.5 7V9.5C17.5 10.0523 17.0523 10.5 16.5 10.5C15.9477 10.5 15.5 10.0523 15.5 9.5V7C15.5 5.067 13.933 3.5 12 3.5C10.067 3.5 8.5 5.067 8.5 7V9.5C8.5 10.0523 8.05228 10.5 7.5 10.5C6.94772 10.5 6.5 10.0523 6.5 9.5V7Z" fill="#475467"/>
<path fill-rule="evenodd" clip-rule="evenodd" d="M6 8.75C4.48112 8.75 3.24986 9.98137 3.25 11.5003L3.25083 20.5003C3.25097 22.0189 4.48215 23.25 6.00083 23.25H17.9998C19.5186 23.25 20.7498 22.0188 20.7498 20.5V11.5C20.7498 9.98122 19.5186 8.75 17.9998 8.75H6ZM13 15C13 14.4477 12.5523 14 12 14C11.4477 14 11 14.4477 11 15V17C11 17.5523 11.4477 18 12 18C12.5523 18 13 17.5523 13 17V15Z" fill="#475467"/>
</svg>
