<svg width="30" height="24" viewBox="0 0 30 24" fill="none" xmlns="http://www.w3.org/2000/svg">
<path fill-rule="evenodd" clip-rule="evenodd" d="M2.41379 0C1.08069 0 0 1.05938 0 2.3662V17.9093C0 19.2203 1.08749 20.2814 2.42491 20.2755L3.21237 20.2718C3.68217 22.4032 5.61636 24 7.93103 24C10.2422 24 12.174 22.408 12.6476 20.2817H17.0076C17.4812 22.408 19.413 24 21.7241 24C23.911 24 25.7583 22.5745 26.3519 20.6197H28.6207C28.9865 20.6197 29.3374 20.4772 29.596 20.2237C29.8548 19.9702 30 19.6262 30 19.2676L29.9997 11.2976C29.9997 10.4967 29.7579 9.71398 29.3048 9.04763L26.4491 4.84854C25.6817 3.72007 24.3897 3.04225 23.0061 3.04225H20V2.3662C20 1.05938 18.9193 0 17.5862 0H2.41379ZM7.93103 21.2958C7.16025 21.2958 6.4879 20.8826 6.13192 20.2698C5.96018 19.9742 5.86207 19.6321 5.86207 19.2676C5.86207 18.1475 6.78837 17.2394 7.93103 17.2394C9.0737 17.2394 10 18.1475 10 19.2676C10 19.6355 9.90008 19.9804 9.72541 20.2779C9.36822 20.8862 8.69841 21.2958 7.93103 21.2958ZM20 5.74648V14.8459C20.5354 14.6451 21.1167 14.5352 21.7241 14.5352C23.911 14.5352 25.7583 15.9607 26.3519 17.9155H27.2414L27.2411 11.2976C27.2411 11.0307 27.1606 10.7697 27.0095 10.5477L24.1538 6.34857C23.8979 5.97242 23.4673 5.74648 23.0061 5.74648H20ZM23.7928 19.2676L23.793 19.2464C23.7814 18.136 22.8596 17.2394 21.7241 17.2394C20.5815 17.2394 19.6552 18.1475 19.6552 19.2676C19.6552 20.3877 20.5815 21.2958 21.7241 21.2958C22.8596 21.2958 23.7814 20.3992 23.793 19.2888L23.7928 19.2676Z" fill="#475467"/>
</svg>
