<svg width="32" height="33" viewBox="0 0 32 33" fill="none" xmlns="http://www.w3.org/2000/svg">
<g clip-path="url(#clip0_12936_13492)">
<g clip-path="url(#clip1_12936_13492)">
<path d="M28.2499 13.7695V6.5625C28.251 6.21792 28.184 5.87652 28.0528 5.5579C27.9216 5.23928 27.7288 4.9497 27.4853 4.7058C27.2419 4.4619 26.9527 4.26848 26.6344 4.13663C26.316 4.00479 25.9748 3.93711 25.6302 3.9375H18.4273C17.955 3.93847 17.5021 4.12564 17.1669 4.4584L2.7669 18.8543C2.27578 19.347 2 20.0143 2 20.71C2 21.4056 2.27578 22.0729 2.7669 22.5656L9.62237 29.4211C10.1149 29.9123 10.7821 30.1882 11.4777 30.1882C12.1734 30.1882 12.8406 29.9123 13.3331 29.4211L27.729 15.0299C28.0619 14.6948 28.2491 14.2419 28.2499 13.7695ZM22.6249 11.4375C22.2541 11.4375 21.8916 11.3275 21.5832 11.1215C21.2749 10.9155 21.0345 10.6226 20.8926 10.28C20.7507 9.93742 20.7136 9.56042 20.7859 9.19671C20.8583 8.83299 21.0369 8.4989 21.2991 8.23668C21.5613 7.97445 21.8954 7.79588 22.2591 7.72353C22.6228 7.65118 22.9998 7.68831 23.3424 7.83023C23.6851 7.97214 23.9779 8.21247 24.1839 8.52081C24.3899 8.82915 24.4999 9.19166 24.4999 9.5625C24.4999 10.0598 24.3024 10.5367 23.9507 10.8883C23.5991 11.24 23.1222 11.4375 22.6249 11.4375Z" fill="#475467"/>
<path d="M31.0638 6.75C30.8152 6.75 30.5767 6.84877 30.4009 7.02459C30.2251 7.2004 30.1263 7.43886 30.1263 7.6875V15.1506L14.8152 30.4623C14.7245 30.5485 14.6519 30.652 14.6018 30.7666C14.5518 30.8813 14.5251 31.0048 14.5235 31.13C14.5219 31.2551 14.5454 31.3793 14.5925 31.4952C14.6397 31.6111 14.7095 31.7164 14.798 31.8049C14.8865 31.8934 14.9918 31.9632 15.1077 32.0104C15.2236 32.0575 15.3478 32.081 15.4729 32.0794C15.5981 32.0778 15.7216 32.0512 15.8363 32.0011C15.9509 31.951 16.0544 31.8784 16.1406 31.7877L31.4922 16.4361C31.6555 16.2721 31.7846 16.0772 31.872 15.8629C31.9594 15.6485 32.0034 15.419 32.0013 15.1875V7.6875C32.0013 7.43886 31.9026 7.2004 31.7268 7.02459C31.5509 6.84877 31.3125 6.75 31.0638 6.75Z" fill="#475467"/>
</g>
</g>
<defs>
<clipPath id="clip0_12936_13492">
<rect width="32" height="32" fill="white" transform="translate(0 0.5)"/>
</clipPath>
<clipPath id="clip1_12936_13492">
<rect width="30" height="30" fill="white" transform="translate(2 3)"/>
</clipPath>
</defs>
</svg>
