<svg width="24" height="25" viewBox="0 0 24 25" fill="none" xmlns="http://www.w3.org/2000/svg">
<g clip-path="url(#clip0_13756_16404)">
<path d="M8.55612 12.4008C8.83702 12.682 8.9948 13.0632 8.9948 13.4608C8.9948 13.8583 8.83702 14.2395 8.55612 14.5208L7.58212 15.4968H15.9961C16.3939 15.4968 16.7755 15.6548 17.0568 15.9361C17.3381 16.2174 17.4961 16.5989 17.4961 16.9968C17.4961 17.3946 17.3381 17.7761 17.0568 18.0574C16.7755 18.3387 16.3939 18.4968 15.9961 18.4968H7.58212L8.55712 19.4708C8.83851 19.7521 8.9966 20.1338 8.9966 20.5318C8.9966 20.9297 8.83851 21.3114 8.55712 21.5928C8.27572 21.8741 7.89407 22.0322 7.49612 22.0322C7.09817 22.0322 6.71651 21.8741 6.43512 21.5928L2.90012 18.0568C2.61891 17.7755 2.46094 17.394 2.46094 16.9963C2.46094 16.5985 2.61891 16.217 2.90012 15.9358L6.43512 12.3998C6.57442 12.2604 6.73982 12.1498 6.92187 12.0743C7.10392 11.9989 7.29905 11.9601 7.49612 11.9601C7.69318 11.9601 7.88831 11.9989 8.07036 12.0743C8.25242 12.1498 8.41782 12.2604 8.55712 12.3998L8.55612 12.4008ZM15.4361 3.40075C15.6985 3.13815 16.0489 2.98216 16.4196 2.96295C16.7903 2.94374 17.155 3.06267 17.4431 3.29675L17.5571 3.39975L21.0921 6.93575C21.3546 7.19825 21.5104 7.54874 21.5294 7.91945C21.5484 8.29016 21.4293 8.65476 21.1951 8.94275L21.0921 9.05675L17.5571 12.5928C17.2859 12.868 16.9189 13.028 16.5326 13.0393C16.1463 13.0506 15.7706 12.9124 15.4837 12.6535C15.1968 12.3946 15.0209 12.0349 14.9927 11.6495C14.9645 11.2641 15.086 10.8827 15.3321 10.5848L15.4351 10.4708L16.4101 9.49675H7.99612C7.60898 9.49943 7.23581 9.35232 6.95464 9.0862C6.67347 8.82007 6.50608 8.45554 6.48748 8.06885C6.46888 7.68215 6.60051 7.30324 6.85485 7.01136C7.10918 6.71948 7.46651 6.53724 7.85212 6.50275L7.99612 6.49675H16.4101L15.4351 5.52175C15.2957 5.38245 15.1852 5.21705 15.1097 5.035C15.0343 4.85295 14.9954 4.65781 14.9954 4.46075C14.9954 4.26369 15.0343 4.06855 15.1097 3.8865C15.1852 3.70445 15.2957 3.53905 15.4351 3.39975L15.4361 3.40075Z" fill="#475467"/>
</g>
<defs>
<clipPath id="clip0_13756_16404">
<rect width="24" height="24" fill="white" transform="translate(0 0.5)"/>
</clipPath>
</defs>
</svg>
