<svg width="24" height="25" viewBox="0 0 24 25" fill="none" xmlns="http://www.w3.org/2000/svg">
<path fill-rule="evenodd" clip-rule="evenodd" d="M12 3.5C7.02944 3.5 3 7.52944 3 12.5C3 17.4706 7.02944 21.5 12 21.5C16.9706 21.5 21 17.4706 21 12.5C21 7.52944 16.9706 3.5 12 3.5ZM1 12.5C1 6.42487 5.92487 1.5 12 1.5C18.0751 1.5 23 6.42487 23 12.5C23 18.5751 18.0751 23.5 12 23.5C5.92487 23.5 1 18.5751 1 12.5Z" fill="#475467"/>
<path fill-rule="evenodd" clip-rule="evenodd" d="M5.40896 18.1472C6.4327 16.3557 8.33793 15.25 10.4014 15.25H13.5981C15.6616 15.25 17.5668 16.3557 18.5905 18.1472L18.5934 18.1522L19.3723 19.5397C19.5435 19.8446 19.4813 20.2273 19.2224 20.4622C17.3145 22.1938 14.7796 23.2499 11.9998 23.2499C9.22 23.2499 6.6851 22.1938 4.77723 20.4622C4.51835 20.2273 4.45615 19.8446 4.62727 19.5398L5.40896 18.1472Z" fill="#475467"/>
<path d="M8.5 10.5C8.5 8.567 10.067 7 12 7C13.933 7 15.5 8.567 15.5 10.5C15.5 12.433 13.933 14 12 14C10.067 14 8.5 12.433 8.5 10.5Z" fill="#475467"/>
</svg>
