<svg width="545" height="218" viewBox="0 0 545 218" fill="none" xmlns="http://www.w3.org/2000/svg">
      <g opacity="0.9">
        <path d="M243.924 72.2955H256.232V133.836H242.716V126.527C238.139 131.517 231.963 135.171 223.941 135.171C206.654 135.171 193.564 121.923 193.564 103.154C193.564 84.3849 206.531 71.1914 223.784 71.1914C231.684 71.1914 237.983 74.8458 242.682 80.0901L243.924 72.2955ZM243.309 103.132C243.309 91.5502 235.644 83.6341 225.026 83.6341C214.408 83.6341 207.124 91.5502 207.124 103.132C207.124 114.713 214.531 122.74 225.149 122.74C235.767 122.74 243.331 114.592 243.331 103.143L243.309 103.132Z" fill="white" />
        <path d="M302.598 134.211C274.816 137.137 272.836 125.919 272.836 107.404V84.7382H266.794V72.2955H272.836V56.3971L286.441 42.8614V72.2955H298.749V84.7271H286.441V107.404C286.441 121.051 287.437 124.098 298.547 122.751L302.598 134.211Z" fill="white" />
        <path d="M356.684 72.2955H368.992V133.836H355.453V126.527C350.877 131.517 344.712 135.171 336.679 135.171C319.392 135.171 306.301 121.923 306.301 103.154C306.301 84.3849 319.269 71.2245 336.511 71.2245C344.41 71.2245 350.709 74.879 355.408 80.1232L356.684 72.2955ZM356.069 103.132C356.069 91.5502 348.415 83.6341 337.797 83.6341C327.179 83.6341 319.895 91.5502 319.895 103.132C319.895 114.713 327.291 122.751 337.909 122.751C348.527 122.751 356.069 114.592 356.069 103.143V103.132Z" fill="white" />
        <path d="M444.202 103.143C444.202 121.912 431.111 135.16 413.825 135.16C406.712 135.268 399.888 132.39 395.05 127.244V167.366L381.344 180.04V72.9137H395.084V78.9198C399.921 73.7737 406.746 70.8963 413.858 71.0037C431.145 70.9706 444.202 84.2524 444.202 103.143ZM430.619 103.143C430.619 91.5613 423.212 83.4023 412.594 83.4023C401.976 83.4023 394.435 91.5613 394.435 103.143C394.435 114.724 401.965 122.751 412.594 122.751C423.223 122.751 430.653 114.592 430.653 103.143H430.619Z" fill="white" />
        <path d="M120.591 103.673C120.591 84.9038 133.681 71.6551 150.968 71.6551C158.084 71.5436 164.911 74.4263 169.743 79.5822V40.5208L183.505 27.8462V133.891H169.743V127.918C164.911 133.074 158.084 135.957 150.968 135.845C133.681 135.845 120.591 122.563 120.591 103.673ZM134.174 103.673C134.174 115.243 141.581 123.413 152.21 123.413C162.839 123.413 170.358 115.243 170.358 103.673C170.358 92.1022 162.828 84.0537 152.21 84.0537C141.592 84.0537 134.174 92.1685 134.174 103.673Z" fill="white" />
        <path d="M513.259 108.133H466.457C468.129 116.699 475.776 122.855 484.616 122.751C492.146 122.883 498.199 120.322 502.026 115.199L512.397 120.929C506.714 130.192 497.214 135.282 484.616 135.183C465.964 135.061 452.873 121.658 452.873 103.165C452.873 84.2745 465.349 70.7498 483.754 70.9927C501.041 71.1914 515.362 82.784 513.259 108.133ZM466.837 96.5847H500.918C498.568 88.4147 491.654 83.1814 483.754 83.1814C475.229 83.1594 468.929 88.3926 466.837 96.5847Z" fill="white" />
        <path d="M524.627 133.847V52.4225L538.188 38.8426V133.847H524.627Z" fill="white" />
        <path d="M150.062 159.659C149.965 158.481 149.321 157.412 148.316 156.767C147.161 156.047 145.811 155.689 144.445 155.74C143.454 155.719 142.468 155.895 141.547 156.259C140.8 156.554 140.146 157.042 139.656 157.672C139.213 158.262 138.981 158.98 138.996 159.715C138.98 160.294 139.136 160.866 139.444 161.36C139.759 161.826 140.171 162.221 140.652 162.519C141.162 162.829 141.701 163.088 142.263 163.292C142.81 163.487 143.366 163.652 143.93 163.789L146.582 164.473C147.488 164.698 148.378 164.982 149.245 165.323C150.148 165.68 150.999 166.156 151.774 166.736C152.557 167.331 153.201 168.084 153.665 168.945C154.175 169.899 154.426 170.968 154.392 172.047C154.42 173.481 154.006 174.89 153.206 176.088C152.35 177.32 151.16 178.288 149.771 178.881C148.054 179.604 146.199 179.951 144.333 179.897C142.526 179.936 140.729 179.613 139.052 178.947C137.661 178.376 136.457 177.436 135.572 176.231C134.711 174.997 134.226 173.545 134.174 172.047H138.291C138.333 172.936 138.671 173.786 139.253 174.465C139.833 175.12 140.578 175.611 141.413 175.889C142.345 176.206 143.325 176.363 144.311 176.353C145.37 176.372 146.422 176.188 147.41 175.812C148.246 175.499 148.984 174.974 149.547 174.288C150.07 173.64 150.347 172.831 150.33 172.003C150.359 171.293 150.115 170.599 149.648 170.06C149.135 169.51 148.504 169.08 147.802 168.801C146.954 168.441 146.079 168.149 145.183 167.929L141.972 167.057C140.069 166.611 138.298 165.729 136.803 164.484C135.53 163.331 134.834 161.684 134.901 159.98C134.867 158.531 135.315 157.112 136.177 155.939C137.063 154.755 138.252 153.825 139.623 153.245C141.173 152.585 142.847 152.258 144.535 152.284C146.211 152.254 147.874 152.577 149.413 153.234C150.746 153.803 151.904 154.71 152.769 155.861C153.588 156.977 154.034 158.316 154.045 159.693L150.062 159.659Z" fill="white" />
        <path d="M165.413 152.616H170.078L177.172 164.76H177.463L184.568 152.616H189.222L179.365 168.9V179.389H175.281V168.9L165.413 152.616Z" fill="white" />
        <path d="M216.12 159.659C216.014 158.481 215.367 157.415 214.363 156.767C213.209 156.043 211.858 155.685 210.492 155.74C209.504 155.718 208.522 155.894 207.605 156.259C206.856 156.55 206.201 157.039 205.714 157.672C205.267 158.26 205.031 158.979 205.043 159.715C205.026 160.296 205.186 160.869 205.502 161.36C205.812 161.831 206.225 162.227 206.71 162.519C207.217 162.833 207.758 163.092 208.321 163.292C208.864 163.488 209.416 163.654 209.977 163.789L212.629 164.473C213.535 164.698 214.425 164.982 215.292 165.323C216.197 165.683 217.051 166.158 217.832 166.736C218.609 167.334 219.249 168.086 219.712 168.945C220.222 169.899 220.473 170.968 220.439 172.047C220.481 173.472 220.088 174.876 219.309 176.077C218.453 177.308 217.263 178.277 215.874 178.87C214.161 179.592 212.309 179.939 210.447 179.886C208.64 179.927 206.843 179.604 205.166 178.936C203.77 178.368 202.561 177.427 201.675 176.22C200.814 174.986 200.329 173.534 200.277 172.036H204.394C204.441 172.924 204.778 173.772 205.356 174.454C205.936 175.109 206.681 175.6 207.516 175.878C208.448 176.195 209.428 176.352 210.414 176.342C211.473 176.362 212.525 176.178 213.513 175.801C214.349 175.488 215.087 174.963 215.65 174.277C216.173 173.629 216.45 172.82 216.433 171.992C216.462 171.282 216.218 170.588 215.751 170.049C215.242 169.499 214.615 169.069 213.916 168.79C213.064 168.432 212.185 168.14 211.286 167.918L208.075 167.046C206.174 166.602 204.407 165.721 202.917 164.473C201.64 163.323 200.944 161.674 201.015 159.969C200.978 158.521 201.422 157.102 202.28 155.928C203.167 154.741 204.361 153.811 205.737 153.234C208.869 151.96 212.384 151.96 215.516 153.234C216.849 153.803 218.007 154.71 218.872 155.861C219.691 156.977 220.137 158.316 220.148 159.693L216.12 159.659Z" fill="white" />
        <path d="M232.209 156.093V152.616H253.233V156.093H244.763V179.389H240.679V156.093H232.209Z" fill="white" />
        <path d="M266.089 179.389V152.616H283.085V156.093H270.184V164.263H282.234V167.73H270.184V175.944H283.275V179.389H266.089Z" fill="white" />
        <path d="M296.824 152.616H301.803L310.452 173.449H310.765L319.414 152.616H324.393V179.389H320.488V160.024H320.242L312.231 179.389H308.998L300.987 160.013H300.74V179.389H296.835L296.824 152.616Z" fill="white" />
        <path d="M353.395 159.659C353.298 158.481 352.653 157.412 351.649 156.767C350.493 156.047 349.144 155.689 347.778 155.74C346.786 155.719 345.801 155.895 344.88 156.259C344.132 156.554 343.479 157.042 342.989 157.672C342.542 158.26 342.305 158.979 342.318 159.715C342.306 160.295 342.465 160.867 342.776 161.36C343.089 161.828 343.501 162.224 343.985 162.519C344.494 162.829 345.034 163.088 345.596 163.292C346.139 163.485 346.692 163.651 347.252 163.789L349.904 164.473C350.813 164.698 351.706 164.982 352.578 165.323C353.481 165.68 354.332 166.156 355.106 166.736C355.889 167.331 356.534 168.084 356.997 168.945C357.503 169.901 357.753 170.969 357.725 172.047C357.747 173.481 357.334 174.888 356.539 176.088C355.683 177.32 354.492 178.288 353.104 178.881C351.387 179.604 349.532 179.951 347.666 179.897C345.858 179.937 344.062 179.614 342.385 178.947C340.99 178.376 339.782 177.436 338.894 176.231C338.036 174.996 337.554 173.544 337.507 172.047H341.613C341.664 172.934 342.001 173.781 342.575 174.465C343.161 175.118 343.909 175.609 344.746 175.889C345.677 176.207 346.658 176.364 347.643 176.353C348.702 176.372 349.755 176.188 350.743 175.812C351.577 175.496 352.314 174.971 352.88 174.288C353.403 173.64 353.68 172.831 353.663 172.003C353.692 171.293 353.448 170.599 352.981 170.06C352.465 169.513 351.835 169.083 351.134 168.801C350.287 168.441 349.411 168.149 348.516 167.929L345.305 167.057C343.402 166.611 341.631 165.729 340.136 164.484C338.862 163.331 338.167 161.684 338.234 159.98C338.2 158.531 338.648 157.112 339.509 155.939C340.395 154.755 341.585 153.825 342.955 153.245C344.505 152.585 346.18 152.258 347.867 152.284C349.543 152.255 351.206 152.579 352.746 153.234C354.079 153.803 355.237 154.71 356.102 155.861C356.911 156.982 357.355 158.318 357.378 159.693L353.395 159.659Z" fill="white" />
        <path d="M49.3356 120.098L85.1357 155.424L49.3357 190.75L13.5355 155.424L49.3356 120.098Z" fill="white" />
        <path d="M49.3297 73.8301L6.8125 115.784V139.974L49.3297 98.02L91.8468 139.974V115.784L49.3297 73.8301Z" fill="white" />
        <path d="M49.3297 27.25L6.8125 69.2041V93.394L49.3297 51.4399L91.8468 93.394V69.2041L49.3297 27.25Z" fill="white" />
        <path d="M49.3297 120.101V162.188L35.0193 176.629L13.5257 155.431L49.3297 120.101Z" fill="white" />
        <path d="M49.3297 120.101V162.188L63.64 176.629L85.1336 155.431L49.3297 120.101Z" fill="white" />
      </g>
    </svg>