<svg width="120" height="48" viewBox="0 0 120 48" fill="none" xmlns="http://www.w3.org/2000/svg">
    <path d="M53.708 15.9183H56.418V29.4684H53.442V27.8591C52.4344 28.9579 51.0745 29.7625 49.3081 29.7625C45.5019 29.7625 42.6195 26.8454 42.6195 22.7128C42.6195 18.5802 45.4748 15.6752 49.2736 15.6752C51.0129 15.6752 52.3999 16.4798 53.4346 17.6345L53.708 15.9183ZM53.5725 22.7079C53.5725 20.1578 51.885 18.4149 49.5471 18.4149C47.2091 18.4149 45.6053 20.1578 45.6053 22.7079C45.6053 25.258 47.2362 27.0253 49.5742 27.0253C51.9121 27.0253 53.5775 25.2312 53.5775 22.7103L53.5725 22.7079Z" fill="#2A3C98" />
    <path d="M66.627 29.551C60.51 30.1952 60.0739 27.7254 60.0739 23.6487V18.658H58.7436V15.9183H60.0739V12.4177L63.0696 9.43736V15.9183H65.7795V18.6555H63.0696V23.6487C63.0696 26.6533 63.2889 27.3243 65.7352 27.0277L66.627 29.551Z" fill="#2A3C98" />
    <path d="M78.5359 15.9183H81.2458V29.4684H78.2649V27.8591C77.2573 28.9579 75.8999 29.7625 74.1311 29.7625C70.3248 29.7625 67.4425 26.8454 67.4425 22.7128C67.4425 18.5802 70.2977 15.6825 74.0941 15.6825C75.8334 15.6825 77.2204 16.4871 78.2551 17.6418L78.5359 15.9183ZM78.4004 22.7079C78.4004 20.1578 76.7153 18.4149 74.3774 18.4149C72.0395 18.4149 70.4357 20.1578 70.4357 22.7079C70.4357 25.258 72.0641 27.0277 74.402 27.0277C76.74 27.0277 78.4004 25.2312 78.4004 22.7103V22.7079Z" fill="#2A3C98" />
    <path d="M97.806 22.7103C97.806 26.843 94.9236 29.7601 91.1174 29.7601C89.5513 29.7837 88.0487 29.1502 86.9835 28.0171V36.8512L83.9656 39.6419V16.0544H86.9909V17.3768C88.0561 16.2438 89.5587 15.6102 91.1248 15.6339C94.931 15.6266 97.806 18.551 97.806 22.7103ZM94.8152 22.7103C94.8152 20.1603 93.1843 18.3638 90.8464 18.3638C88.5085 18.3638 86.848 20.1603 86.848 22.7103C86.848 25.2604 88.506 27.0277 90.8464 27.0277C93.1868 27.0277 94.8226 25.2312 94.8226 22.7103H94.8152Z" fill="#2A3C98" />
    <path d="M26.5521 22.827C26.5521 18.6944 29.4345 15.7773 33.2407 15.7773C34.8074 15.7527 36.3107 16.3874 37.3745 17.5227V8.922L40.4047 6.13127V29.4805H37.3745V28.1654C36.3107 29.3007 34.8074 29.9354 33.2407 29.9108C29.4345 29.9108 26.5521 26.9864 26.5521 22.827ZM29.5428 22.827C29.5428 25.3747 31.1737 27.1736 33.5141 27.1736C35.8545 27.1736 37.51 25.3747 37.51 22.827C37.51 20.2794 35.8521 18.5072 33.5141 18.5072C31.1762 18.5072 29.5428 20.294 29.5428 22.827Z" fill="#2A3C98" />
    <path d="M113.011 23.8091H102.706C103.074 25.6952 104.758 27.0506 106.704 27.0277C108.362 27.0569 109.695 26.4929 110.538 25.3649L112.821 26.6266C111.57 28.6662 109.478 29.7868 106.704 29.765C102.598 29.7382 99.7153 26.787 99.7153 22.7152C99.7153 18.5559 102.462 15.5779 106.515 15.6314C110.321 15.6752 113.474 18.2277 113.011 23.8091ZM102.79 21.2664H110.294C109.776 19.4675 108.254 18.3152 106.515 18.3152C104.637 18.3103 103.25 19.4626 102.79 21.2664Z" fill="#2A3C98" />
    <path d="M115.514 29.4708V11.5426L118.5 8.5525V29.4708H115.514Z" fill="#2A3C98" />
    <path d="M33.0411 35.1544C33.0198 34.8948 32.8779 34.6596 32.6568 34.5175C32.4023 34.3589 32.1052 34.2801 31.8044 34.2914C31.5861 34.2867 31.3691 34.3255 31.1663 34.4056C31.0017 34.4705 30.8579 34.578 30.75 34.7168C30.6524 34.8467 30.6012 35.0049 30.6046 35.1665C30.6011 35.2941 30.6353 35.42 30.7032 35.5287C30.7727 35.6313 30.8634 35.7183 30.9693 35.784C31.0814 35.8523 31.2003 35.9093 31.324 35.9542C31.4443 35.997 31.5668 36.0336 31.6911 36.0635L32.275 36.2143C32.4744 36.2637 32.6703 36.3262 32.8613 36.4014C33.0602 36.48 33.2475 36.5847 33.418 36.7126C33.5904 36.8435 33.7324 37.0093 33.8344 37.1988C33.9469 37.409 34.002 37.6443 33.9945 37.8819C34.0007 38.1977 33.9097 38.508 33.7334 38.7716C33.545 39.0428 33.2828 39.256 32.9771 39.3867C32.5991 39.5459 32.1906 39.6222 31.7798 39.6103C31.3818 39.619 30.9862 39.5478 30.617 39.4012C30.3106 39.2754 30.0455 39.0684 29.8508 38.8032C29.6611 38.5314 29.5543 38.2117 29.5428 37.8819H30.4494C30.4586 38.0776 30.5331 38.2648 30.6613 38.4143C30.7889 38.5585 30.953 38.6667 31.1368 38.7279C31.342 38.7977 31.5578 38.8323 31.7748 38.83C32.008 38.8342 32.2397 38.7937 32.4573 38.7108C32.6414 38.642 32.8038 38.5263 32.9278 38.3754C33.043 38.2326 33.104 38.0546 33.1003 37.8722C33.1066 37.716 33.0529 37.5631 32.95 37.4443C32.837 37.3233 32.6981 37.2287 32.5435 37.1672C32.3569 37.0879 32.1641 37.0237 31.967 36.9752L31.26 36.7831C30.8408 36.6849 30.451 36.4909 30.1218 36.2167C29.8414 35.9628 29.6882 35.6001 29.703 35.2249C29.6955 34.906 29.7941 34.5934 29.9838 34.3351C30.1789 34.0745 30.4408 33.8698 30.7426 33.742C31.0839 33.5967 31.4525 33.5246 31.8241 33.5305C32.1932 33.5238 32.5594 33.595 32.8982 33.7396C33.1918 33.865 33.4467 34.0645 33.6373 34.3181C33.8175 34.5637 33.9157 34.8585 33.9182 35.1617L33.0411 35.1544Z" fill="#E67425" />
    <path d="M36.4211 33.6034H37.4485L39.0104 36.2775H39.0744L40.6388 33.6034H41.6636L39.4932 37.1891V39.4985H38.594V37.1891L36.4211 33.6034Z" fill="#E67425" />
    <path d="M47.5861 35.1544C47.5628 34.8948 47.4202 34.6601 47.1993 34.5175C46.9451 34.3582 46.6477 34.2793 46.3469 34.2914C46.1293 34.2865 45.9131 34.3253 45.7113 34.4056C45.5462 34.4697 45.4021 34.5773 45.2949 34.7168C45.1964 34.8463 45.1444 35.0046 45.1471 35.1665C45.1433 35.2945 45.1785 35.4207 45.2481 35.5287C45.3163 35.6324 45.4072 35.7197 45.5142 35.784C45.6259 35.8532 45.7448 35.9103 45.8689 35.9542C45.9883 35.9974 46.11 36.0339 46.2336 36.0635L46.8174 36.2143C47.0169 36.2637 47.2127 36.3262 47.4038 36.4014C47.6031 36.4807 47.7911 36.5853 47.963 36.7126C48.134 36.8442 48.275 37.0099 48.3769 37.1988C48.4893 37.409 48.5445 37.6443 48.537 37.8819C48.5464 38.1956 48.4596 38.5048 48.2882 38.7692C48.0998 39.0404 47.8376 39.2536 47.5319 39.3842C47.1547 39.5432 46.747 39.6195 46.337 39.6079C45.939 39.6169 45.5434 39.5458 45.1742 39.3988C44.8668 39.2737 44.6006 39.0666 44.4056 38.8008C44.2159 38.529 44.109 38.2093 44.0976 37.8795H45.0042C45.0144 38.0749 45.0888 38.2618 45.2161 38.4118C45.3437 38.556 45.5078 38.6643 45.6916 38.7254C45.8968 38.7953 46.1126 38.8298 46.3296 38.8275C46.5628 38.832 46.7946 38.7915 47.012 38.7084C47.1962 38.6396 47.3586 38.5239 47.4826 38.3729C47.5978 38.2302 47.6588 38.0522 47.655 37.8697C47.6614 37.7135 47.6077 37.5607 47.5048 37.4419C47.3927 37.3209 47.2547 37.2263 47.1007 37.1648C46.9132 37.0858 46.7196 37.0216 46.5218 36.9727L45.8147 36.7807C45.3961 36.6831 45.0069 36.489 44.679 36.2143C44.3978 35.961 44.2444 35.5979 44.2602 35.2224C44.252 34.9038 44.3498 34.5913 44.5386 34.3327C44.734 34.0714 44.9969 33.8665 45.2999 33.7396C45.9895 33.4592 46.7634 33.4592 47.453 33.7396C47.7466 33.865 48.0015 34.0645 48.1921 34.3181C48.3723 34.5637 48.4704 34.8585 48.4729 35.1617L47.5861 35.1544Z" fill="#E67425" />
    <path d="M51.1287 34.3692V33.6034H55.7577V34.3692H53.8928V39.4985H52.9936V34.3692H51.1287Z" fill="#E67425" />
    <path d="M58.5884 39.4985V33.6034H62.3305V34.3692H59.49V36.1681H62.1433V36.9314H59.49V38.74H62.3724V39.4985H58.5884Z" fill="#E67425" />
    <path d="M65.3558 33.6034H66.4521L68.3564 38.1906H68.4254L70.3298 33.6034H71.4261V39.4985H70.5663V35.2346H70.5121L68.7481 39.4985H68.0362L66.2723 35.2322H66.2181V39.4985H65.3583L65.3558 33.6034Z" fill="#E67425" />
    <path d="M77.8116 35.1544C77.7904 34.8948 77.6484 34.6596 77.4273 34.5175C77.1728 34.3589 76.8757 34.2801 76.5749 34.2914C76.3566 34.2867 76.1396 34.3255 75.9369 34.4056C75.7722 34.4705 75.6284 34.578 75.5205 34.7168C75.422 34.8463 75.37 35.0046 75.3727 35.1665C75.37 35.2944 75.4051 35.4202 75.4737 35.5287C75.5426 35.6319 75.6334 35.719 75.7398 35.784C75.852 35.8523 75.9708 35.9093 76.0945 35.9542C76.2141 35.9967 76.3358 36.0332 76.4591 36.0635L77.043 36.2143C77.2433 36.2637 77.44 36.3262 77.6318 36.4014C77.8307 36.48 78.018 36.5847 78.1886 36.7126C78.3609 36.8435 78.5029 37.0093 78.6049 37.1988C78.7162 37.4094 78.7713 37.6445 78.765 37.8819C78.77 38.1976 78.6791 38.5074 78.5039 38.7716C78.3155 39.0428 78.0534 39.256 77.7476 39.3867C77.3696 39.5459 76.9611 39.6222 76.5503 39.6103C76.1523 39.6192 75.7567 39.548 75.3875 39.4012C75.0804 39.2754 74.8145 39.0685 74.6188 38.8032C74.4299 38.5312 74.3239 38.2115 74.3134 37.8819H75.2175C75.2287 38.0771 75.303 38.2637 75.4294 38.4143C75.5583 38.558 75.7231 38.6661 75.9073 38.7279C76.1124 38.7979 76.3283 38.8324 76.5454 38.83C76.7785 38.8342 77.0102 38.7937 77.2278 38.7108C77.4115 38.6413 77.5737 38.5257 77.6983 38.3754C77.8135 38.2326 77.8745 38.0546 77.8708 37.8722C77.8771 37.716 77.8235 37.5631 77.7205 37.4443C77.607 37.3239 77.4683 37.2293 77.314 37.1672C77.1274 37.0879 76.9346 37.0237 76.7375 36.9752L76.0305 36.7831C75.6114 36.6849 75.2215 36.4909 74.8923 36.2167C74.6119 35.9628 74.4587 35.6001 74.4735 35.2249C74.466 34.906 74.5646 34.5934 74.7543 34.3351C74.9494 34.0745 75.2113 33.8698 75.5131 33.742C75.8544 33.5967 76.223 33.5246 76.5946 33.5305C76.9637 33.5241 77.3298 33.5953 77.6687 33.7396C77.9623 33.865 78.2173 34.0645 78.4078 34.3181C78.5858 34.5648 78.6838 34.8589 78.6887 35.1617L77.8116 35.1544Z" fill="#E67425" />
    <path d="M10.8629 26.4436L18.7455 34.2218L10.8629 42L2.9803 34.2218L10.8629 26.4436Z" fill="#2A3C98" />
    <path d="M10.8616 16.2562L1.5 25.4938V30.82L10.8616 21.5824L20.2232 30.82V25.4938L10.8616 16.2562Z" fill="#E45525" />
    <path d="M10.8616 6L1.5 15.2376V20.5638L10.8616 11.3262L20.2232 20.5638V15.2376L10.8616 6Z" fill="#E67425" />
    <path d="M10.8616 26.4443V35.7111L7.71067 38.8907L2.97814 34.2233L10.8616 26.4443Z" fill="#201B51" />
    <path d="M10.8616 26.4443V35.7111L14.0125 38.8907L18.745 34.2233L10.8616 26.4443Z" fill="#292F7C" />
  </svg>